# Blender v2.93.2 OBJ File: 'onevone.blend'
# www.blender.org
mtllib onevone.mtl
o Floor_Plane
v -47.964935 0.001795 48.051830
v 48.035065 0.001795 48.051830
v -47.964935 0.001795 -47.948170
v 48.035065 0.001795 -47.948170
v -47.964935 0.001795 0.051831
v 48.035065 0.001795 0.051831
v 1.181112 0.001795 48.051830
v 1.181112 0.001795 -47.948170
v 1.181112 0.001795 0.051831
v 1.181116 0.001795 48.051830
v 1.181116 0.001795 -47.948170
v 1.181116 0.001795 0.051831
v 24.608091 0.001795 48.051830
v 24.608088 0.001795 -47.948170
v 24.608088 0.001795 0.051831
v 36.321579 0.001795 48.051830
v 36.321579 0.001795 -47.948170
v 36.321579 0.001795 0.051831
v -23.391912 0.001795 -47.948170
v -23.391912 0.001795 0.051831
v -23.391912 0.001795 48.051830
v -35.678421 0.001795 -47.948170
v -35.678421 0.001795 0.051831
v -35.678421 0.001795 48.051830
v -47.964935 0.001795 24.051830
v 48.035065 0.001795 24.051830
v 1.181112 0.001795 24.051830
v 1.181116 0.001795 24.051830
v 24.608091 0.001795 24.051830
v 36.321579 0.001795 24.051830
v -23.391912 0.001795 24.051830
v -35.678421 0.001795 24.051830
v 48.035065 0.001795 -23.948170
v -47.964935 0.001795 -23.948170
v 1.181112 0.001795 -23.948170
v 1.181116 0.001795 -23.948170
v 24.608088 0.001795 -23.948170
v 36.321579 0.001795 -23.948170
v -23.391912 0.001795 -23.948170
v -35.678421 0.001795 -23.948170
v 3.644534 15.333840 -47.948170
v 3.644534 15.333840 48.051830
v -3.574404 15.333840 -47.948170
v 3.644534 14.312055 48.051830
v -3.574404 14.312055 -47.948170
v -3.574404 15.333840 48.051830
v -3.574404 14.312055 48.051830
v 3.644534 14.312055 -47.948170
v 3.644534 14.312055 -0.948169
v 3.644534 15.333840 -0.948169
v -3.574404 15.333840 -0.948169
v -3.574404 14.312055 -0.948169
v 3.644534 14.312055 -24.448170
v -3.574404 15.333840 -24.448170
v 3.644534 15.333840 -24.448170
v -3.574404 14.312055 -24.448170
v 3.644534 15.333840 24.051830
v -3.574404 14.312055 24.051830
v 3.644534 14.312055 24.051830
v -3.574404 15.333840 24.051830
v 5.098726 16.700844 -32.094315
v 18.719511 8.237049 -34.347954
v 4.619196 16.106094 -30.606731
v 4.619196 16.106094 -30.606731
v 23.436739 0.001795 -47.948170
v 23.436739 0.001795 0.051831
v 23.436743 0.001795 48.051830
v 23.436743 0.001795 24.051830
v 23.436739 0.001795 -23.948170
v -22.163260 0.001795 48.051830
v -22.163261 0.001795 -47.948170
v -22.163261 0.001795 0.051831
v -22.163260 0.001795 24.051830
v -22.163261 0.001795 -23.948170
vt 1.000000 0.750000
vt 0.877985 1.000000
vt 0.877985 0.750000
vt 1.000000 0.250000
vt 0.877984 0.500000
vt 0.877985 0.250000
vt 0.511938 0.250000
vt 0.268767 0.500000
vt 0.268767 0.250000
vt 0.511938 0.750000
vt 0.268767 1.000000
vt 0.268767 0.750000
vt 0.511938 0.250000
vt 0.511938 0.500000
vt 0.511938 0.750000
vt 0.511938 1.000000
vt 0.755969 0.250000
vt 0.743767 0.500000
vt 0.743767 0.250000
vt 0.375000 0.561198
vt 0.743767 1.000000
vt 0.743767 0.750000
vt 0.755969 0.500000
vt 0.755969 1.000000
vt 0.755969 0.750000
vt 0.255969 0.750000
vt 0.127984 1.000000
vt 0.127984 0.750000
vt 0.255969 0.250000
vt 0.127984 0.500000
vt 0.127984 0.250000
vt 0.000000 0.500000
vt 0.000000 0.250000
vt 0.000000 1.000000
vt 0.000000 0.750000
vt 0.127985 0.000000
vt 0.000000 0.000000
vt 0.255969 0.000000
vt 0.877985 0.000000
vt 0.755969 0.000000
vt 0.375000 0.687500
vt 0.511938 0.000000
vt 0.511938 0.000000
vt 0.268767 0.000000
vt 1.000000 0.000000
vt 0.255969 0.500000
vt 0.511938 0.500000
vt 1.000000 0.500000
vt 0.375000 0.188802
vt 0.625000 1.000000
vt 0.375000 0.750000
vt 0.625000 0.750000
vt 0.125000 0.561198
vt 0.375000 0.500000
vt 0.743767 0.000000
vt 0.625000 0.561198
vt 0.875000 0.500000
vt 0.875000 0.561198
vt 0.625000 0.500000
vt 0.375000 0.250000
vt 0.625000 0.250000
vt 0.625000 0.687500
vt 0.875000 0.622396
vt 0.875000 0.687500
vt 0.625000 0.622396
vt 0.125000 0.687500
vt 0.375000 0.622396
vt 0.625000 0.127604
vt 0.375000 0.062500
vt 0.625000 0.062500
vt 0.125000 0.622396
vt 0.625000 0.188802
vt 0.375000 0.127604
vt 0.125000 0.750000
vt 0.875000 0.750000
vt 0.511938 1.000000
vt 0.125000 0.500000
vt 0.255969 1.000000
vt 0.375000 1.000000
vt 1.000000 1.000000
vn 0.0000 1.0000 0.0000
vn -0.5859 -0.8104 0.0000
vn 0.0000 0.0000 -1.0000
vn 0.0000 0.0349 0.9994
vn 0.0000 0.0000 1.0000
vn 0.0000 -1.0000 0.0000
vn 1.0000 0.0000 0.0000
vn -1.0000 0.0000 0.0000
vn -0.0238 0.0000 0.9997
vn 0.6100 -0.7924 0.0000
vn -0.6119 0.7909 0.0000
vn 0.5903 0.8072 0.0000
vn 0.0252 0.0000 0.9997
usemtl None
s off
f 33/1/1 17/2/1 38/3/1
f 26/4/1 18/5/1 30/6/1
f 27/7/1 72/8/1 73/9/1
f 35/10/1 71/11/1 74/12/1
f 28/13/1 9/14/1 27/7/1
f 36/15/1 8/16/1 35/10/1
f 29/17/1 66/18/1 68/19/1
f 53/20/2 65/21/2 69/22/2
f 30/6/1 15/23/1 29/17/1
f 38/3/1 14/24/1 37/25/1
f 39/26/1 22/27/1 40/28/1
f 31/29/1 23/30/1 32/31/1
f 32/31/1 5/32/1 25/33/1
f 40/28/1 3/34/1 34/35/1
f 24/36/1 25/33/1 1/37/1
f 21/38/1 32/31/1 24/36/1
f 16/39/1 29/17/1 13/40/1
f 59/41/3 29/17/3 68/19/3
f 10/42/1 27/7/1 7/43/1
f 7/43/1 73/9/1 70/44/1
f 2/45/1 30/6/1 16/39/1
f 23/30/1 34/35/1 5/32/1
f 20/46/1 40/28/1 23/30/1
f 18/5/1 37/25/1 15/23/1
f 15/23/1 69/22/1 66/18/1
f 12/47/1 35/10/1 9/14/1
f 9/14/1 74/12/1 72/8/1
f 6/48/1 38/3/1 18/5/1
f 56/49/4 39/26/4 74/12/4
f 46/50/5 44/51/5 42/52/5
f 56/53/6 48/54/6 53/20/6
f 59/41/2 67/55/2 44/51/2
f 55/56/1 43/57/1 54/58/1
f 41/59/3 45/60/3 43/61/3
f 57/62/1 51/63/1 60/64/1
f 50/65/7 53/20/7 55/56/7
f 58/66/6 49/67/6 59/41/6
f 51/68/8 58/69/8 60/70/8
f 53/20/9 37/25/9 55/56/9
f 50/65/1 54/58/1 51/63/1
f 52/71/6 53/20/6 49/67/6
f 54/72/8 52/73/8 51/68/8
f 47/74/10 73/9/10 58/66/10
f 47/74/6 59/41/6 44/51/6
f 42/52/1 60/64/1 46/75/1
f 57/62/7 49/67/7 50/65/7
f 66/18/1 36/15/1 12/47/1
f 67/55/1 28/13/1 10/42/1
f 69/22/1 11/76/1 36/15/1
f 28/13/1 66/18/1 12/47/1
f 72/8/1 39/26/1 20/46/1
f 58/69/3 31/29/3 60/70/3
f 56/53/10 71/11/10 45/77/10
f 73/9/1 20/46/1 31/29/1
f 54/58/11 19/78/11 39/26/11
f 45/60/3 19/78/3 43/61/3
f 48/54/3 14/24/3 65/21/3
f 55/56/12 14/24/12 41/59/12
f 42/52/12 29/17/12 57/62/12
f 44/51/5 13/40/5 42/52/5
f 47/79/5 21/38/5 70/44/5
f 60/64/11 21/38/11 46/75/11
f 33/1/1 4/80/1 17/2/1
f 26/4/1 6/48/1 18/5/1
f 27/7/1 9/14/1 72/8/1
f 35/10/1 8/16/1 71/11/1
f 28/13/1 12/47/1 9/14/1
f 36/15/1 11/76/1 8/16/1
f 29/17/1 15/23/1 66/18/1
f 53/20/2 48/54/2 65/21/2
f 30/6/1 18/5/1 15/23/1
f 38/3/1 17/2/1 14/24/1
f 39/26/1 19/78/1 22/27/1
f 31/29/1 20/46/1 23/30/1
f 32/31/1 23/30/1 5/32/1
f 40/28/1 22/27/1 3/34/1
f 24/36/1 32/31/1 25/33/1
f 21/38/1 31/29/1 32/31/1
f 16/39/1 30/6/1 29/17/1
f 59/41/3 57/62/3 29/17/3
f 10/42/1 28/13/1 27/7/1
f 7/43/1 27/7/1 73/9/1
f 2/45/1 26/4/1 30/6/1
f 23/30/1 40/28/1 34/35/1
f 20/46/1 39/26/1 40/28/1
f 18/5/1 38/3/1 37/25/1
f 15/23/1 37/25/1 69/22/1
f 12/47/1 36/15/1 35/10/1
f 9/14/1 35/10/1 74/12/1
f 6/48/1 33/1/1 38/3/1
f 56/49/13 54/72/13 39/26/13
f 46/50/5 47/79/5 44/51/5
f 56/53/6 45/77/6 48/54/6
f 59/41/2 68/19/2 67/55/2
f 55/56/1 41/59/1 43/57/1
f 41/59/3 48/54/3 45/60/3
f 57/62/1 50/65/1 51/63/1
f 50/65/7 49/67/7 53/20/7
f 58/66/6 52/71/6 49/67/6
f 51/68/8 52/73/8 58/69/8
f 53/20/4 69/22/4 37/25/4
f 50/65/1 55/56/1 54/58/1
f 52/71/6 56/53/6 53/20/6
f 54/72/8 56/49/8 52/73/8
f 47/74/10 70/44/10 73/9/10
f 47/74/6 58/66/6 59/41/6
f 42/52/1 57/62/1 60/64/1
f 57/62/7 59/41/7 49/67/7
f 66/18/1 69/22/1 36/15/1
f 67/55/1 68/19/1 28/13/1
f 69/22/1 65/21/1 11/76/1
f 28/13/1 68/19/1 66/18/1
f 72/8/1 74/12/1 39/26/1
f 58/69/3 73/9/3 31/29/3
f 56/53/10 74/12/10 71/11/10
f 73/9/1 72/8/1 20/46/1
f 54/58/11 43/57/11 19/78/11
f 45/60/3 71/11/3 19/78/3
f 48/54/3 41/59/3 14/24/3
f 55/56/12 37/25/12 14/24/12
f 42/52/12 13/40/12 29/17/12
f 44/51/5 67/55/5 13/40/5
f 47/79/5 46/50/5 21/38/5
f 60/64/11 31/29/11 21/38/11
o MiddleCover_Cube
v 2.382534 1.721810 -12.738669
v -2.312404 1.721810 -12.738669
v 1.860754 6.405330 -12.903856
v 1.860754 6.405330 13.007517
v -1.790624 6.405330 13.007517
v -1.790624 6.405330 -12.903856
v -2.312404 1.721810 12.842329
v 2.382534 1.721810 12.842329
v 2.569557 4.635339 -13.612659
v 2.569557 4.635339 13.716318
v -2.499427 4.635339 -13.612659
v -2.499427 4.635339 13.716318
v 2.382534 2.712321 -12.738669
v 2.382534 2.712321 12.842329
v -2.312404 2.712321 12.842329
v -2.312404 2.712321 -12.738669
v 2.498486 7.294196 -13.312637
v 2.498486 7.294196 13.416298
v -2.428357 7.294196 13.416298
v -2.428357 7.294196 -13.312637
v -3.574404 0.001795 -14.458685
v -3.574404 0.001795 14.562346
v 3.644534 0.001795 14.562346
v 3.644534 0.001795 -14.458685
v -3.574404 4.432336 -14.458685
v 3.644534 4.432336 -14.458685
v 3.644534 4.432336 14.562346
v -3.574404 4.432336 14.562346
v -3.574404 1.069181 -13.391298
v -3.574404 1.069181 13.494959
v 3.644534 1.069181 13.494959
v 3.644534 1.069181 -13.391298
v -3.574404 3.364950 -13.391299
v 3.644534 3.364950 -13.391299
v 3.644534 3.364950 13.494959
v -3.574404 3.364950 13.494959
v -3.574404 0.001795 0.051830
v 3.644534 0.001795 0.051830
v 3.644534 4.432336 0.051830
v -3.574404 4.432336 0.051830
v 2.498486 7.294196 0.051830
v -2.428357 7.294196 0.051830
v 2.569557 4.635339 0.051829
v -2.499427 4.635339 0.051830
v 1.860754 6.405330 0.051830
v -1.790624 6.405330 0.051830
v -3.574404 1.069181 0.051830
v 3.644534 1.069181 0.051830
v 3.644534 3.364950 0.051829
v -3.574404 3.364950 0.051830
v -2.312404 1.721810 0.051829
v 2.382534 1.721810 0.051830
v 2.382534 2.712321 0.051829
v -2.312404 2.712321 0.051830
v 3.644534 0.001795 -7.203427
v -3.574404 4.432336 -7.203427
v -2.428357 7.294196 -6.630404
v -2.499427 4.635339 -6.780414
v -1.790624 6.405330 -6.426013
v 3.644534 1.069181 -6.669734
v -3.574404 3.364950 -6.669734
v 2.382534 1.721810 -6.343420
v -2.312404 2.712321 -6.343420
v -3.574404 0.001795 -7.203427
v 3.644534 4.432336 -7.203427
v 2.498486 7.294196 -6.630404
v 2.569557 4.635339 -6.780415
v 1.860754 6.405330 -6.426013
v -3.574404 1.069181 -6.669734
v 3.644534 3.364950 -6.669735
v -2.312404 1.721810 -6.343420
v 2.382534 2.712321 -6.343420
v -3.574404 0.001795 7.307088
v 3.644534 4.432336 7.307088
v 2.498486 7.294196 6.734064
v 2.569557 4.635339 6.884073
v 1.860754 6.405330 6.529674
v -3.574404 1.069181 6.773395
v 3.644534 3.364950 6.773394
v -2.312404 1.721810 6.447079
v 2.382534 2.712321 6.447079
v 3.644534 0.001795 7.307088
v -3.574404 4.432336 7.307088
v -2.428357 7.294196 6.734064
v -2.499427 4.635339 6.884074
v -1.790624 6.405330 6.529674
v 3.644534 1.069181 6.773395
v -3.574404 3.364950 6.773395
v 2.382534 1.721810 6.447080
v -2.312404 2.712321 6.447080
vt 0.527946 0.069908
vt 0.472054 0.014817
vt 0.527946 0.014817
vt 0.472054 0.514817
vt 0.527945 0.569908
vt 0.472054 0.569908
vt 0.125000 0.500000
vt 0.375000 0.562500
vt 0.125000 0.562500
vt 0.625000 0.250000
vt 0.375000 0.500000
vt 0.375000 0.250000
vt 0.835311 0.740127
vt 0.664689 0.682564
vt 0.835311 0.682564
vt 0.375000 1.000000
vt 0.625000 0.750000
vt 0.625000 1.000000
vt 0.664689 0.509873
vt 0.875000 0.500000
vt 0.835311 0.509873
vt 0.664689 0.740128
vt 0.632571 0.742712
vt 0.625000 0.687500
vt 0.632571 0.683856
vt 0.867429 0.507288
vt 0.875000 0.562500
vt 0.867429 0.566144
vt 0.657118 0.513394
vt 0.664689 0.567436
vt 0.657118 0.569197
vt 0.842882 0.736606
vt 0.842882 0.680803
vt 0.632571 0.507288
vt 0.867429 0.742712
vt 0.435229 0.240805
vt 0.375000 0.187500
vt 0.435229 0.182903
vt 0.435229 0.740805
vt 0.375000 0.687500
vt 0.435229 0.682902
vt 0.564771 0.240805
vt 0.564771 0.509195
vt 0.625000 0.500000
vt 0.625000 0.562500
vt 0.564771 0.567097
vt 0.435229 0.009195
vt 0.625000 0.000000
vt 0.564771 0.009195
vt 0.564771 0.740805
vt 0.375000 0.750000
vt 0.625000 0.062500
vt 0.564771 0.067097
vt 0.472054 0.235183
vt 0.472054 0.180092
vt 0.472054 0.735183
vt 0.472054 0.680092
vt 0.527946 0.235183
vt 0.527945 0.514817
vt 0.527946 0.735183
vt 0.527945 0.180091
vt 0.564771 0.125000
vt 0.564771 0.182903
vt 0.527945 0.680092
vt 0.564771 0.625000
vt 0.564771 0.682902
vt 0.435229 0.625000
vt 0.435229 0.567097
vt 0.472054 0.069908
vt 0.435229 0.125000
vt 0.435229 0.067097
vt 0.625000 0.125000
vt 0.625000 0.187500
vt 0.625000 0.625000
vt 0.375000 0.625000
vt 0.375000 0.125000
vt 0.375000 0.062500
vt 0.842882 0.569197
vt 0.835311 0.625000
vt 0.835311 0.567436
vt 0.657118 0.680803
vt 0.664689 0.625000
vt 0.867429 0.683856
vt 0.875000 0.625000
vt 0.875000 0.687500
vt 0.632571 0.566144
vt 0.125000 0.625000
vt 0.125000 0.687500
vt 0.472054 0.625000
vt 0.472055 0.125000
vt 0.527945 0.125000
vt 0.842882 0.513394
vt 0.435229 0.509195
vt 0.527945 0.625000
vt 0.657118 0.625000
vt 0.867429 0.625000
vt 0.125000 0.750000
vt 0.875000 0.750000
vt 0.657118 0.736606
vt 0.375000 0.000000
vt 0.842882 0.625000
vt 0.632571 0.625000
vn -1.0000 0.0000 0.0000
vn 1.0000 -0.0000 0.0000
vn 0.0000 -1.0000 0.0000
vn 0.0000 0.0000 -1.0000
vn 0.0000 1.0000 0.0000
vn 0.0000 0.0000 1.0000
vn 0.0000 0.3718 -0.9283
vn 0.0000 0.3718 0.9283
vn 0.1856 0.9826 0.0000
vn -0.1856 0.9826 0.0000
vn 0.8125 -0.5829 0.0000
vn -0.8125 -0.5829 0.0000
vn 0.6083 -0.0729 0.7904
vn 0.6083 -0.0729 -0.7904
vn -0.6083 -0.0729 0.7904
vn -0.6083 -0.0729 -0.7904
vn -0.4594 0.8883 0.0000
vn 0.4594 0.8883 0.0000
vn -0.4594 0.0000 0.8883
vn 0.4594 0.0000 0.8883
vn 0.4594 -0.8883 0.0000
vn -0.4594 0.0000 -0.8883
vn 0.4594 0.0000 -0.8883
vn -0.4594 -0.8883 0.0000
vn 0.0000 -0.3718 0.9283
vn 0.0000 -0.3718 -0.9283
usemtl None
s off
f 164/81/14 81/82/14 89/83/14
f 75/84/15 146/85/15 136/86/15
f 95/87/16 129/88/16 138/89/16
f 99/90/17 98/91/17 95/92/17
f 93/93/18 149/94/18 158/95/18
f 96/96/19 101/97/19 102/98/19
f 91/99/20 99/100/20 94/101/20
f 93/93/21 101/97/21 92/102/21
f 84/103/22 148/104/22 150/105/22
f 85/106/23 130/107/23 132/108/23
f 77/109/24 140/110/24 142/111/24
f 79/112/25 158/95/25 160/113/25
f 83/114/26 91/99/26 77/109/26
f 84/103/27 92/102/27 101/97/27
f 85/106/28 94/101/28 99/100/28
f 86/115/29 93/93/29 79/112/29
f 103/116/14 138/117/14 143/118/14
f 105/119/15 156/120/15 161/121/15
f 107/122/14 95/92/14 103/116/14
f 108/123/15 98/91/15 100/124/15
f 108/123/15 139/125/15 144/126/15
f 104/127/14 102/128/14 110/129/14
f 109/130/15 97/131/15 105/119/15
f 110/129/14 157/132/14 162/133/14
f 76/134/30 143/118/30 145/135/30
f 82/136/31 161/121/31 163/137/31
f 90/138/32 103/116/32 76/134/32
f 75/84/33 108/123/33 87/139/33
f 87/139/34 144/126/34 146/85/34
f 81/82/35 110/129/35 89/83/35
f 88/140/36 105/119/36 82/136/36
f 89/83/37 162/133/37 164/81/37
f 137/141/37 124/142/37 135/143/37
f 155/144/34 123/145/34 153/146/34
f 136/86/31 122/147/31 134/148/31
f 154/149/30 121/150/30 152/151/30
f 135/143/14 114/152/14 130/153/14
f 153/146/15 113/154/15 148/104/15
f 134/148/15 112/155/15 129/88/15
f 152/151/14 111/156/14 147/157/14
f 133/158/25 116/159/25 131/160/25
f 151/161/24 115/162/24 149/94/24
f 159/163/23 114/164/23 157/165/23
f 141/166/22 113/154/22 139/125/22
f 116/159/18 140/110/18 131/160/18
f 111/167/16 156/120/16 147/168/16
f 126/169/15 155/144/15 163/137/15
f 137/141/14 125/170/14 128/171/14
f 90/138/14 145/135/14 137/141/14
f 131/160/18 91/99/18 94/101/18
f 83/114/22 139/125/22 100/124/22
f 80/172/25 131/160/25 94/101/25
f 106/173/15 129/88/15 98/91/15
f 107/122/14 130/153/14 99/90/14
f 75/84/31 134/148/31 106/173/31
f 90/138/37 135/143/37 107/122/37
f 146/85/34 123/145/34 127/174/34
f 145/135/30 121/150/30 125/170/30
f 144/126/15 113/154/15 123/145/15
f 143/118/14 111/156/14 121/150/14
f 142/111/24 115/162/24 119/175/24
f 132/108/23 114/164/23 118/176/23
f 138/89/16 112/155/16 111/167/16
f 136/86/15 127/174/15 126/169/15
f 163/137/15 88/140/15 82/136/15
f 147/168/16 97/131/16 96/177/16
f 80/172/38 83/114/38 77/109/38
f 86/115/23 157/165/23 102/178/23
f 78/179/24 149/94/24 92/102/24
f 104/127/14 147/157/14 96/180/14
f 109/130/15 148/104/15 101/97/15
f 81/82/30 152/151/30 104/127/30
f 88/140/34 153/146/34 109/130/34
f 164/81/37 124/142/37 128/171/37
f 163/137/31 122/147/31 126/169/31
f 162/133/14 114/152/14 124/142/14
f 161/121/15 112/155/15 122/147/15
f 160/113/25 116/159/25 120/181/25
f 150/105/22 113/154/22 117/182/22
f 158/95/18 115/162/18 116/159/18
f 128/171/14 154/149/14 164/81/14
f 141/166/18 85/106/18 132/108/18
f 133/158/16 77/109/16 142/111/16
f 150/105/18 86/115/18 84/103/18
f 78/179/16 160/113/16 151/161/16
f 86/115/39 78/179/39 84/103/39
f 119/175/16 160/113/16 120/181/16
f 117/182/18 132/108/18 118/176/18
f 164/81/14 154/149/14 81/82/14
f 75/84/15 87/139/15 146/85/15
f 95/87/16 98/91/16 129/88/16
f 99/90/17 100/124/17 98/91/17
f 93/93/18 92/102/18 149/94/18
f 96/96/19 97/131/19 101/97/19
f 91/99/20 100/124/20 99/100/20
f 93/93/21 102/178/21 101/97/21
f 84/103/22 101/97/22 148/104/22
f 85/106/23 99/100/23 130/107/23
f 77/109/24 91/99/24 140/110/24
f 79/112/25 93/93/25 158/95/25
f 83/114/26 100/124/26 91/99/26
f 84/103/27 78/179/27 92/102/27
f 85/106/28 80/172/28 94/101/28
f 86/115/29 102/178/29 93/93/29
f 103/116/14 95/92/14 138/117/14
f 105/119/15 97/131/15 156/120/15
f 107/122/14 99/90/14 95/92/14
f 108/123/15 106/173/15 98/91/15
f 108/123/15 100/124/15 139/125/15
f 104/127/14 96/180/14 102/128/14
f 109/130/15 101/97/15 97/131/15
f 110/129/14 102/128/14 157/132/14
f 76/134/30 103/116/30 143/118/30
f 82/136/31 105/119/31 161/121/31
f 90/138/32 107/122/32 103/116/32
f 75/84/33 106/173/33 108/123/33
f 87/139/34 108/123/34 144/126/34
f 81/82/35 104/127/35 110/129/35
f 88/140/36 109/130/36 105/119/36
f 89/83/37 110/129/37 162/133/37
f 137/141/37 128/171/37 124/142/37
f 155/144/34 127/174/34 123/145/34
f 136/86/31 126/169/31 122/147/31
f 154/149/30 125/170/30 121/150/30
f 135/143/14 124/142/14 114/152/14
f 153/146/15 123/145/15 113/154/15
f 134/148/15 122/147/15 112/155/15
f 152/151/14 121/150/14 111/156/14
f 133/158/25 120/181/25 116/159/25
f 151/161/24 119/175/24 115/162/24
f 159/163/23 118/176/23 114/164/23
f 141/166/22 117/182/22 113/154/22
f 116/159/18 115/162/18 140/110/18
f 111/167/16 112/155/16 156/120/16
f 126/169/15 127/174/15 155/144/15
f 137/141/14 145/135/14 125/170/14
f 90/138/14 76/134/14 145/135/14
f 131/160/18 140/110/18 91/99/18
f 83/114/22 141/166/22 139/125/22
f 80/172/25 133/158/25 131/160/25
f 106/173/15 134/148/15 129/88/15
f 107/122/14 135/143/14 130/153/14
f 75/84/31 136/86/31 134/148/31
f 90/138/37 137/141/37 135/143/37
f 146/85/34 144/126/34 123/145/34
f 145/135/30 143/118/30 121/150/30
f 144/126/15 139/125/15 113/154/15
f 143/118/14 138/117/14 111/156/14
f 142/111/24 140/110/24 115/162/24
f 132/108/23 130/107/23 114/164/23
f 138/89/16 129/88/16 112/155/16
f 136/86/15 146/85/15 127/174/15
f 163/137/15 155/144/15 88/140/15
f 147/168/16 156/120/16 97/131/16
f 80/172/38 85/106/38 83/114/38
f 86/115/23 159/163/23 157/165/23
f 78/179/24 151/161/24 149/94/24
f 104/127/14 152/151/14 147/157/14
f 109/130/15 153/146/15 148/104/15
f 81/82/30 154/149/30 152/151/30
f 88/140/34 155/144/34 153/146/34
f 164/81/37 162/133/37 124/142/37
f 163/137/31 161/121/31 122/147/31
f 162/133/14 157/132/14 114/152/14
f 161/121/15 156/120/15 112/155/15
f 160/113/25 158/95/25 116/159/25
f 150/105/22 148/104/22 113/154/22
f 158/95/18 149/94/18 115/162/18
f 128/171/14 125/170/14 154/149/14
f 141/166/18 83/114/18 85/106/18
f 133/158/16 80/172/16 77/109/16
f 150/105/18 159/163/18 86/115/18
f 78/179/16 79/112/16 160/113/16
f 86/115/39 79/112/39 78/179/39
f 133/158/16 142/111/16 119/175/16
f 119/175/16 151/161/16 160/113/16
f 120/181/16 133/158/16 119/175/16
f 117/182/18 141/166/18 132/108/18
f 118/176/18 159/163/18 117/182/18
f 159/163/18 150/105/18 117/182/18
o SpawnCover_Cube.003
v 24.639797 0.001794 -17.322599
v 26.639797 0.001794 -17.322599
v 24.639797 0.001794 17.426260
v 26.639797 0.001794 17.426260
v 24.639797 6.993212 17.426260
v 24.639797 6.993212 -17.322599
v 26.639797 6.993212 -17.322599
v 26.639797 6.993212 17.426260
vt 0.375000 0.250000
vt 0.625000 0.000000
vt 0.625000 0.250000
vt 0.375000 0.500000
vt 0.625000 0.750000
vt 0.375000 0.750000
vt 0.125000 0.500000
vt 0.375000 1.000000
vt 0.875000 0.750000
vt 0.625000 0.500000
vt 0.875000 0.500000
vt 0.375000 0.000000
vt 0.125000 0.750000
vt 0.625000 1.000000
vn -1.0000 0.0000 0.0000
vn 1.0000 0.0000 0.0000
vn 0.0000 -1.0000 0.0000
vn 0.0000 0.0000 -1.0000
vn 0.0000 0.0000 1.0000
vn 0.0000 1.0000 0.0000
usemtl None
s off
f 165/183/40 169/184/40 170/185/40
f 166/186/41 172/187/41 168/188/41
f 168/188/42 165/189/42 166/186/42
f 170/185/43 166/186/43 165/183/43
f 172/187/44 167/190/44 168/188/44
f 169/191/45 171/192/45 170/193/45
f 165/183/40 167/194/40 169/184/40
f 166/186/41 171/192/41 172/187/41
f 168/188/42 167/195/42 165/189/42
f 170/185/43 171/192/43 166/186/43
f 172/187/44 169/196/44 167/190/44
f 169/191/45 172/187/45 171/192/45
o SpawnCover.001_Cube.001
v -26.969669 0.001794 -17.322599
v -24.969669 0.001794 -17.322599
v -26.969669 0.001794 17.426260
v -24.969669 0.001794 17.426260
v -26.969669 6.993212 17.426260
v -26.969669 6.993212 -17.322599
v -24.969669 6.993212 -17.322599
v -24.969669 6.993212 17.426260
vt 0.375000 0.250000
vt 0.625000 0.000000
vt 0.625000 0.250000
vt 0.375000 0.500000
vt 0.625000 0.750000
vt 0.375000 0.750000
vt 0.125000 0.500000
vt 0.375000 1.000000
vt 0.875000 0.750000
vt 0.625000 0.500000
vt 0.875000 0.500000
vt 0.375000 0.000000
vt 0.125000 0.750000
vt 0.625000 1.000000
vn -1.0000 0.0000 0.0000
vn 1.0000 0.0000 0.0000
vn 0.0000 -1.0000 0.0000
vn 0.0000 0.0000 -1.0000
vn 0.0000 0.0000 1.0000
vn 0.0000 1.0000 0.0000
usemtl None
s off
f 173/197/46 177/198/46 178/199/46
f 174/200/47 180/201/47 176/202/47
f 176/202/48 173/203/48 174/200/48
f 178/199/49 174/200/49 173/197/49
f 180/201/50 175/204/50 176/202/50
f 177/205/51 179/206/51 178/207/51
f 173/197/46 175/208/46 177/198/46
f 174/200/47 179/206/47 180/201/47
f 176/202/48 175/209/48 173/203/48
f 178/199/49 179/206/49 174/200/49
f 180/201/50 177/210/50 175/204/50
f 177/205/51 180/201/51 179/206/51
